<svg width="341" height="43" viewBox="0 0 341 43" fill="none" xmlns="http://www.w3.org/2000/svg">
<path d="M33.7082 0.897652L21.7116 17.8034L9.78862 0.897652H0V42.0399H8.31665V24.8349L7.72786 10.5474L21.638 30.6696H21.8588L35.7689 10.5474L35.1801 24.8349V42.0399H43.4968V0.897652H33.7082Z" fill="#455874"/>
<path d="M70.2614 0C58.7064 0 49.2858 9.05129 49.2858 21.4688C49.2858 33.7366 58.5592 42.9375 70.2614 42.9375C82.0372 42.9375 91.237 33.8114 91.237 21.4688C91.237 9.05129 81.89 0 70.2614 0ZM70.2614 8.07884C77.2533 8.07884 82.8468 13.5395 82.8468 21.4688C82.8468 29.398 77.3269 34.8587 70.2614 34.8587C63.1959 34.8587 57.676 29.398 57.676 21.4688C57.676 13.5395 63.2695 8.07884 70.2614 8.07884Z" fill="#455874"/>
<path d="M97.1484 33.8332H139.1V41.8902H97.1484V33.8332Z" fill="#455874"/>
<path fill-rule="evenodd" clip-rule="evenodd" d="M97.1649 1.07343H105.086V30.0562H97.1649V1.07343ZM104.017 4.83046H98.2087C97.917 4.83046 97.6806 5.07076 97.6806 5.36718V5.9039C97.6806 6.20032 97.917 6.44062 98.2087 6.44062H104.017C104.309 6.44062 104.546 6.20032 104.546 5.9039V5.36718C104.546 5.07076 104.309 4.83046 104.017 4.83046ZM98.2087 7.51405H104.017C104.309 7.51405 104.546 7.75435 104.546 8.05077V8.58749C104.546 8.88391 104.309 9.12421 104.017 9.12421H98.2087C97.917 9.12421 97.6806 8.88391 97.6806 8.58749V8.05077C97.6806 7.75435 97.917 7.51405 98.2087 7.51405ZM104.017 24.6891H98.2087C97.917 24.6891 97.6806 24.9294 97.6806 25.2258V25.7625C97.6806 26.0589 97.917 26.2992 98.2087 26.2992H104.017C104.309 26.2992 104.546 26.0589 104.546 25.7625V25.2258C104.546 24.9294 104.309 24.6891 104.017 24.6891Z" fill="#466DD1"/>
<path fill-rule="evenodd" clip-rule="evenodd" d="M108.782 1.07343H116.704V30.0562H108.782V1.07343ZM115.647 4.83046H109.839C109.547 4.83046 109.311 5.07076 109.311 5.36718V5.9039C109.311 6.20032 109.547 6.44062 109.839 6.44062H115.647C115.939 6.44062 116.175 6.20032 116.175 5.9039V5.36718C116.175 5.07076 115.939 4.83046 115.647 4.83046ZM109.839 7.51405H115.647C115.939 7.51405 116.175 7.75435 116.175 8.05077V8.58749C116.175 8.88391 115.939 9.12421 115.647 9.12421H109.839C109.547 9.12421 109.311 8.88391 109.311 8.58749V8.05077C109.311 7.75435 109.547 7.51405 109.839 7.51405ZM115.647 24.6891H109.839C109.547 24.6891 109.311 24.9294 109.311 25.2258V25.7625C109.311 26.0589 109.547 26.2992 109.839 26.2992H115.647C115.939 26.2992 116.175 26.0589 116.175 25.7625V25.2258C116.175 24.9294 115.939 24.6891 115.647 24.6891Z" fill="#466DD1"/>
<path fill-rule="evenodd" clip-rule="evenodd" d="M120.928 3.55077L128.3 0.605381L138.733 27.5789L131.361 30.5243L120.928 3.55077ZM128.669 4.49467L123.263 6.65462C122.992 6.76307 122.858 7.07462 122.965 7.35049L123.158 7.85C123.265 8.12587 123.572 8.2616 123.843 8.15315L129.249 5.9932C129.52 5.88475 129.654 5.5732 129.547 5.29733L129.354 4.79782C129.247 4.52195 128.941 4.38622 128.669 4.49467ZM124.229 9.15217L129.635 6.99222C129.907 6.88377 130.213 7.0195 130.32 7.29537L130.513 7.79488C130.62 8.07075 130.486 8.3823 130.215 8.49075L124.809 10.6507C124.538 10.7591 124.231 10.6234 124.124 10.3476L123.931 9.84804C123.824 9.57217 123.958 9.26062 124.229 9.15217ZM135.818 22.9765L130.412 25.1365C130.14 25.2449 130.007 25.5565 130.113 25.8324L130.307 26.3319C130.413 26.6077 130.72 26.7435 130.991 26.635L136.397 24.4751C136.669 24.3666 136.802 24.0551 136.696 23.7792L136.502 23.2797C136.396 23.0038 136.089 22.8681 135.818 22.9765Z" fill="#466DD1"/>
<path d="M163.592 2.84827L161.332 5.98181L159.086 2.84827H157.242V10.4741H158.809V7.28514L158.698 4.63688L161.318 8.36663H161.36L163.98 4.63688L163.869 7.28514V10.4741H165.436V2.84827H163.592Z" fill="#455874"/>
<path d="M170.825 2.68188C168.648 2.68188 166.873 4.35958 166.873 6.66121C166.873 8.93511 168.62 10.6405 170.825 10.6405C173.043 10.6405 174.777 8.94897 174.777 6.66121C174.777 4.35958 173.016 2.68188 170.825 2.68188ZM170.825 4.17933C172.142 4.17933 173.196 5.19149 173.196 6.66121C173.196 8.13092 172.156 9.14308 170.825 9.14308C169.494 9.14308 168.454 8.13092 168.454 6.66121C168.454 5.19149 169.508 4.17933 170.825 4.17933Z" fill="#455874"/>
<path d="M179.907 10.6405C181.696 10.6405 183.304 9.57291 183.665 7.68724H182.042C181.751 8.63007 180.905 9.18468 179.907 9.18468C178.535 9.18468 177.536 8.14479 177.536 6.66121C177.536 5.19149 178.507 4.13774 179.921 4.13774C180.905 4.13774 181.751 4.66461 182.042 5.62131H183.665C183.318 3.77724 181.724 2.68188 179.921 2.68188C177.647 2.68188 175.956 4.38731 175.956 6.66121C175.956 8.93511 177.647 10.6405 179.907 10.6405Z" fill="#455874"/>
<path d="M192.145 10.4741L188.11 6.46709L191.84 2.84827H189.829L186.529 6.14819V2.84827H184.962V10.4741H186.529V6.95238L190.12 10.4741H192.145Z" fill="#455874"/>
<path d="M196.149 2.68188C193.972 2.68188 192.197 4.35958 192.197 6.66121C192.197 8.93511 193.944 10.6405 196.149 10.6405C198.367 10.6405 200.101 8.94897 200.101 6.66121C200.101 4.35958 198.34 2.68188 196.149 2.68188ZM196.149 4.17933C197.466 4.17933 198.52 5.19149 198.52 6.66121C198.52 8.13092 197.48 9.14308 196.149 9.14308C194.818 9.14308 193.778 8.13092 193.778 6.66121C193.778 5.19149 194.832 4.17933 196.149 4.17933Z" fill="#455874"/>
<path d="M206.729 6.3839C207.353 6.00954 207.769 5.55199 207.769 4.77554C207.769 3.37515 206.729 2.84827 205.079 2.84827H201.529V10.4741H205.412C207.103 10.4741 208.143 9.72543 208.143 8.28344C208.143 7.35447 207.672 6.66121 206.729 6.3839ZM206.188 5.06671C206.188 5.60745 205.869 5.99568 204.926 5.99568H203.096V4.08227H204.954C205.911 4.08227 206.188 4.45664 206.188 5.06671ZM205.314 9.24014H203.096V7.13263H205.301C206.23 7.13263 206.562 7.53472 206.562 8.15865C206.562 8.79645 206.285 9.24014 205.314 9.24014Z" fill="#455874"/>
<path d="M213.163 10.6405C214.951 10.6405 216.56 9.57291 216.92 7.68724H215.298C215.007 8.63007 214.161 9.18468 213.163 9.18468C211.79 9.18468 210.792 8.14479 210.792 6.66121C210.792 5.19149 211.762 4.13774 213.177 4.13774C214.161 4.13774 215.007 4.66461 215.298 5.62131H216.92C216.573 3.77724 214.979 2.68188 213.177 2.68188C210.903 2.68188 209.211 4.38731 209.211 6.66121C209.211 8.93511 210.903 10.6405 213.163 10.6405Z" fill="#455874"/>
<path d="M225.4 10.4741L221.365 6.46709L225.095 2.84827H223.085L219.785 6.14819V2.84827H218.218V10.4741H219.785V6.95238L223.376 10.4741H225.4Z" fill="#455874"/>
<path d="M231.637 2.84827V4.1516C231.082 3.27809 230.167 2.68188 228.961 2.68188C226.964 2.68188 225.453 4.33185 225.453 6.66121C225.453 8.99057 226.936 10.6405 228.975 10.6405C230.167 10.6405 231.082 10.0721 231.637 9.19855V10.4741H233.204V2.84827H231.637ZM229.307 9.14308C227.99 9.14308 227.034 8.13092 227.034 6.66121C227.034 5.20536 227.976 4.17933 229.307 4.17933C230.638 4.17933 231.651 5.20536 231.651 6.66121C231.651 8.13092 230.638 9.14308 229.307 9.14308Z" fill="#455874"/>
<path d="M237.58 2.84827C236.014 2.84827 234.807 3.63859 234.807 5.39947C234.807 6.67507 235.598 7.3406 236.651 7.60404L234.419 10.4741H236.346L238.329 7.71497H239.84V10.4741H241.407V2.84827H237.58ZM237.705 6.4255C236.776 6.4255 236.388 5.99568 236.388 5.37174C236.388 4.73394 236.693 4.26252 237.663 4.26252H239.84V6.4255H237.705Z" fill="#455874"/>
<path d="M164.313 18.0553H158.809H157.242V25.6812H158.809V19.525H162.746V25.6812H164.313V18.0553Z" fill="#466DD1"/>
<path d="M170.298 17.8889C169.091 17.8889 168.176 18.4851 167.622 19.3586V18.0553H166.055V29.1475H167.622V24.4056C168.176 25.2652 169.091 25.8476 170.284 25.8476C172.322 25.8476 173.806 24.1976 173.806 21.8682C173.806 19.5389 172.294 17.8889 170.298 17.8889ZM169.951 24.3501C168.62 24.3501 167.608 23.338 167.608 21.8682C167.608 20.4124 168.62 19.3864 169.951 19.3864C171.282 19.3864 172.225 20.4124 172.225 21.8682C172.225 23.338 171.268 24.3501 169.951 24.3501Z" fill="#466DD1"/>
<path d="M178.932 17.8889C176.63 17.8889 174.994 19.5805 174.994 21.8821C174.994 24.1837 176.644 25.8476 178.96 25.8476C180.582 25.8476 182.038 25.0434 182.634 23.338H181.012C180.651 24.0867 179.889 24.4749 178.974 24.4749C177.698 24.4749 176.714 23.6985 176.589 22.2981H182.787C182.939 19.7885 181.386 17.8889 178.932 17.8889ZM178.932 19.2477C180.083 19.2477 180.873 19.9826 181.109 21.0225H176.672C176.935 19.9964 177.74 19.2477 178.932 19.2477Z" fill="#466DD1"/>
<path d="M191.546 24.2115V18.0553H186.097L185.417 22.2842C185.237 23.3657 185.015 23.948 184.669 24.2115H183.338V27.6639H184.904V25.6812H191.366V27.6639H192.932V24.2115H191.546ZM186.374 24.2115C186.637 23.8232 186.832 23.2409 186.97 22.3535L187.428 19.525H189.979V24.2115H186.374Z" fill="#466DD1"/>
<path d="M201.116 18.0553H195.612H194.045V25.6812H195.612V19.525H199.549V25.6812H201.116V18.0553Z" fill="#466DD1"/>
<path d="M207.101 17.8889C205.894 17.8889 204.979 18.4851 204.425 19.3586V18.0553H202.858V29.1475H204.425V24.4056C204.979 25.2652 205.894 25.8476 207.087 25.8476C209.125 25.8476 210.609 24.1976 210.609 21.8682C210.609 19.5389 209.097 17.8889 207.101 17.8889ZM206.754 24.3501C205.423 24.3501 204.411 23.338 204.411 21.8682C204.411 20.4124 205.423 19.3864 206.754 19.3864C208.085 19.3864 209.028 20.4124 209.028 21.8682C209.028 23.338 208.071 24.3501 206.754 24.3501Z" fill="#466DD1"/>
<path d="M215.749 17.8889C213.572 17.8889 211.797 19.5666 211.797 21.8682C211.797 24.1421 213.544 25.8476 215.749 25.8476C217.967 25.8476 219.7 24.156 219.7 21.8682C219.7 19.5666 217.94 17.8889 215.749 17.8889ZM215.749 19.3864C217.066 19.3864 218.12 20.3985 218.12 21.8682C218.12 23.338 217.08 24.3501 215.749 24.3501C214.418 24.3501 213.378 23.338 213.378 21.8682C213.378 20.3985 214.432 19.3864 215.749 19.3864Z" fill="#466DD1"/>
<path d="M231.306 17.8889C230.114 17.8889 229.199 18.4713 228.63 19.3586V15.0049H227.063V19.3586C226.509 18.4713 225.58 17.8889 224.387 17.8889C222.391 17.8889 220.88 19.5389 220.88 21.8682C220.88 24.1976 222.363 25.8476 224.401 25.8476C225.594 25.8476 226.495 25.2791 227.063 24.4194V28.9811H228.63V24.4194C229.213 25.2791 230.114 25.8476 231.306 25.8476C233.33 25.8476 234.828 24.1976 234.828 21.8682C234.828 19.5389 233.317 17.8889 231.306 17.8889ZM224.734 24.3501C223.417 24.3501 222.46 23.338 222.46 21.8682C222.46 20.4124 223.403 19.3864 224.734 19.3864C226.065 19.3864 227.077 20.4124 227.077 21.8682C227.077 23.338 226.065 24.3501 224.734 24.3501ZM230.973 24.3501C229.642 24.3501 228.63 23.338 228.63 21.8682C228.63 20.4124 229.642 19.3864 230.973 19.3864C232.304 19.3864 233.247 20.4124 233.247 21.8682C233.247 23.338 232.291 24.3501 230.973 24.3501Z" fill="#466DD1"/>
<path d="M239.952 17.8889C237.65 17.8889 236.014 19.5805 236.014 21.8821C236.014 24.1837 237.664 25.8476 239.98 25.8476C241.602 25.8476 243.058 25.0434 243.654 23.338H242.032C241.671 24.0867 240.909 24.4749 239.994 24.4749C238.718 24.4749 237.734 23.6985 237.609 22.2981H243.807C243.959 19.7885 242.406 17.8889 239.952 17.8889ZM239.952 19.2477C241.103 19.2477 241.893 19.9826 242.129 21.0225H237.692C237.955 19.9964 238.76 19.2477 239.952 19.2477Z" fill="#466DD1"/>
<path d="M248.899 25.8476C250.688 25.8476 252.296 24.7799 252.657 22.8943H251.034C250.743 23.8371 249.897 24.3917 248.899 24.3917C247.527 24.3917 246.528 23.3518 246.528 21.8682C246.528 20.3985 247.499 19.3448 248.913 19.3448C249.898 19.3448 250.743 19.8716 251.034 20.8284H252.657C252.31 18.9843 250.716 17.8889 248.913 17.8889C246.639 17.8889 244.948 19.5943 244.948 21.8682C244.948 24.1421 246.639 25.8476 248.899 25.8476Z" fill="#466DD1"/>
<path d="M257.657 25.8476C259.445 25.8476 261.053 24.7799 261.414 22.8943H259.792C259.501 23.8371 258.655 24.3917 257.657 24.3917C256.284 24.3917 255.286 23.3518 255.286 21.8682C255.286 20.3985 256.256 19.3448 257.67 19.3448C258.655 19.3448 259.501 19.8716 259.792 20.8284H261.414C261.067 18.9843 259.473 17.8889 257.67 17.8889C255.396 17.8889 253.705 19.5943 253.705 21.8682C253.705 24.1421 255.396 25.8476 257.657 25.8476Z" fill="#466DD1"/>
<path d="M267.953 18.0553L264.182 23.643L264.279 21.2443V18.0553H262.712V25.6812H264.556L268.327 20.0796L268.23 22.4922V25.6812H269.797V18.0553H267.953Z" fill="#466DD1"/>
<path d="M275.171 17.8889C272.994 17.8889 271.22 19.5666 271.22 21.8682C271.22 24.1421 272.967 25.8476 275.171 25.8476C277.39 25.8476 279.123 24.156 279.123 21.8682C279.123 19.5666 277.362 17.8889 275.171 17.8889ZM275.171 19.3864C276.488 19.3864 277.542 20.3985 277.542 21.8682C277.542 23.338 276.502 24.3501 275.171 24.3501C273.84 24.3501 272.8 23.338 272.8 21.8682C272.8 20.3985 273.854 19.3864 275.171 19.3864Z" fill="#466DD1"/>
<path d="M286.167 18.0553V21.0502H282.118V18.0553H280.551V25.6812H282.118V22.5338H286.167V25.6812H287.734V18.0553H286.167Z" fill="#466DD1"/>
<path d="M295.351 18.0553V19.3586C294.797 18.4851 293.882 17.8889 292.675 17.8889C290.679 17.8889 289.167 19.5389 289.167 21.8682C289.167 24.1976 290.651 25.8476 292.689 25.8476C293.882 25.8476 294.797 25.2791 295.351 24.4056V25.6812H296.918V18.0553H295.351ZM293.022 24.3501C291.705 24.3501 290.748 23.338 290.748 21.8682C290.748 20.4124 291.691 19.3864 293.022 19.3864C294.353 19.3864 295.365 20.4124 295.365 21.8682C295.365 23.338 294.353 24.3501 293.022 24.3501Z" fill="#466DD1"/>
<path d="M300.385 18.0553L299.664 22.5754C299.428 23.9896 299.109 24.3917 298.374 24.3917C298.222 24.3917 298.069 24.364 297.917 24.3501V25.7644C298.167 25.806 298.444 25.8476 298.693 25.8476C299.997 25.8476 300.842 24.9879 301.217 22.714L301.716 19.525H304.239V25.6812H305.806V18.0553H300.385Z" fill="#466DD1"/>
<path d="M311.258 20.4401H309.054V18.0553H307.487V25.6812H311.203C312.769 25.6812 313.99 24.8354 313.99 23.0052C313.99 21.175 312.825 20.4401 311.258 20.4401ZM311.161 24.1837H309.054V21.8266H311.175C312.132 21.8266 312.409 22.2981 312.409 23.0052C312.409 23.6846 312.118 24.1837 311.161 24.1837Z" fill="#466DD1"/>
<path d="M321.047 18.0553V21.0502H316.998V18.0553H315.432V25.6812H316.998V22.5338H321.047V25.6812H322.614V18.0553H321.047Z" fill="#466DD1"/>
<path d="M330.232 18.0553V19.3586C329.677 18.4851 328.762 17.8889 327.556 17.8889C325.559 17.8889 324.048 19.5389 324.048 21.8682C324.048 24.1976 325.531 25.8476 327.569 25.8476C328.762 25.8476 329.677 25.2791 330.232 24.4056V25.6812H331.798V18.0553H330.232ZM327.902 24.3501C326.585 24.3501 325.628 23.338 325.628 21.8682C325.628 20.4124 326.571 19.3864 327.902 19.3864C329.233 19.3864 330.245 20.4124 330.245 21.8682C330.245 23.338 329.233 24.3501 327.902 24.3501Z" fill="#466DD1"/>
<path d="M336.175 18.0553C334.608 18.0553 333.402 18.8456 333.402 20.6065C333.402 21.8821 334.192 22.5476 335.246 22.8111L333.014 25.6812H334.941L336.924 22.922H338.435V25.6812H340.002V18.0553H336.175ZM336.3 21.6325C335.371 21.6325 334.983 21.2027 334.983 20.5788C334.983 19.941 335.288 19.4696 336.258 19.4696H338.435V21.6325H336.3Z" fill="#466DD1"/>
<path d="M160.944 33.096C158.767 33.096 156.992 34.7736 156.992 37.0753C156.992 39.3492 158.739 41.0546 160.944 41.0546C163.162 41.0546 164.895 39.363 164.895 37.0753C164.895 34.7736 163.134 33.096 160.944 33.096ZM160.944 34.5934C162.261 34.5934 163.315 35.6056 163.315 37.0753C163.315 38.545 162.275 39.5572 160.944 39.5572C159.613 39.5572 158.573 38.545 158.573 37.0753C158.573 35.6056 159.627 34.5934 160.944 34.5934Z" fill="#455874"/>
<path d="M167.858 33.2623L167.137 37.7824C166.901 39.1967 166.582 39.5987 165.847 39.5987C165.695 39.5987 165.542 39.571 165.39 39.5572V40.9714C165.639 41.013 165.917 41.0546 166.166 41.0546C167.469 41.0546 168.315 40.195 168.69 37.9211L169.189 34.7321H171.712V40.8882H173.279V33.2623H167.858Z" fill="#455874"/>
<path d="M180.201 33.2623L176.429 38.85L176.526 36.4513V33.2623H174.959V40.8882H176.804L180.575 35.2867L180.478 37.6992V40.8882H182.045V33.2623H180.201Z" fill="#455874"/>
<path d="M190.067 33.2623L187.807 36.3959L185.561 33.2623H183.717V40.8882H185.284V37.6992L185.173 35.0509L187.793 38.7807H187.835L190.455 35.0509L190.344 37.6992V40.8882H191.911V33.2623H190.067Z" fill="#455874"/>
<path d="M200.669 33.2623H195.165H193.598V40.8882H195.165V34.7321H199.102V40.8882H200.669V33.2623Z" fill="#455874"/>
<path d="M207.583 33.2623L203.811 38.85L203.908 36.4513V33.2623H202.342V40.8882H204.186L207.957 35.2867L207.86 37.6992V40.8882H209.427V33.2623H207.583Z" fill="#455874"/>
<path d="M217.033 33.2623V34.5657C216.479 33.6922 215.564 33.096 214.357 33.096C212.361 33.096 210.849 34.7459 210.849 37.0753C210.849 39.4046 212.333 41.0546 214.371 41.0546C215.564 41.0546 216.479 40.4861 217.033 39.6126V40.8882H218.6V33.2623H217.033ZM214.704 39.5572C213.387 39.5572 212.43 38.545 212.43 37.0753C212.43 35.6194 213.373 34.5934 214.704 34.5934C216.035 34.5934 217.047 35.6194 217.047 37.0753C217.047 38.545 216.035 39.5572 214.704 39.5572Z" fill="#455874"/>
<path d="M227.807 39.4185V33.2623H222.358L221.679 37.4912C221.498 38.5727 221.277 39.1551 220.93 39.4185H219.599V42.8709H221.166V40.8882H227.627V42.8709H229.194V39.4185H227.807ZM222.635 39.4185C222.899 39.0303 223.093 38.4479 223.232 37.5606L223.689 34.7321H226.24V39.4185H222.635Z" fill="#455874"/>
<path d="M235.902 33.2623V34.5657C235.347 33.6922 234.432 33.096 233.226 33.096C231.229 33.096 229.718 34.7459 229.718 37.0753C229.718 39.4046 231.202 41.0546 233.24 41.0546C234.432 41.0546 235.347 40.4861 235.902 39.6126V40.8882H237.469V33.2623H235.902ZM233.573 39.5572C232.255 39.5572 231.299 38.545 231.299 37.0753C231.299 35.6194 232.242 34.5934 233.573 34.5934C234.904 34.5934 235.916 35.6194 235.916 37.0753C235.916 38.545 234.904 39.5572 233.573 39.5572Z" fill="#455874"/>
</svg>
