<svg width="500" height="500" viewBox="0 0 250 250" fill="red" xmlns="http://www.w3.org/2000/svg">
<path fill-rule="evenodd" clip-rule="evenodd" d="M212.02 108.251L38.5023 106.74L38.5343 103.074L212.052 104.584L212.02 108.251Z" fill="#7C838C"/>
<path fill-rule="evenodd" clip-rule="evenodd" d="M211.512 128.37L38.497 126.357L38.5396 122.69L211.555 124.703L211.512 128.37Z" fill="#7C838C"/>
<path fill-rule="evenodd" clip-rule="evenodd" d="M211.518 147.987L38 146.476L38.0319 142.809L211.55 144.32L211.518 147.987Z" fill="#7C838C"/>
<path fill-rule="evenodd" clip-rule="evenodd" d="M107.246 38.0319L105.736 211.55L102.069 211.518L103.58 38L107.246 38.0319Z" fill="#7C838C"/>
<path fill-rule="evenodd" clip-rule="evenodd" d="M127.361 38.5396L125.348 211.555L121.682 211.512L123.695 38.497L127.361 38.5396Z" fill="#7C838C"/>
<path fill-rule="evenodd" clip-rule="evenodd" d="M146.978 38.5343L145.468 212.052L141.801 212.02L143.312 38.5023L146.978 38.5343Z" fill="#7C838C"/>
<path d="M174.786 76.6662L76.208 75.779L75.3208 174.357L173.899 175.244L174.786 76.6662Z" fill="white"/>
<path fill-rule="evenodd" clip-rule="evenodd" d="M74.3911 73.9291L176.636 74.8493L175.716 177.094L73.4709 176.174L74.3911 73.9291ZM78.0248 77.6288L77.1706 172.54L172.082 173.395L172.936 78.483L78.0248 77.6288Z" fill="#466DD1"/>
<path d="M160.567 90.6283L90.156 89.9946L89.5223 160.406L159.933 161.039L160.567 90.6283Z" fill="#AFB7C3"/>
</svg>
